<svg id="visual" viewBox="0 0 960 540" width="960" height="540" xmlns="http://www.w3.org/2000/svg" xmlns:xlink="http://www.w3.org/1999/xlink" version="1.1"><rect x="0" y="0" width="960" height="540" fill="#002233"></rect><path d="M0 356L22.8 361.8C45.7 367.7 91.3 379.3 137 374C182.7 368.7 228.3 346.3 274 348.8C319.7 351.3 365.3 378.7 411.2 381.8C457 385 503 364 548.8 370.7C594.7 377.3 640.3 411.7 686 426.2C731.7 440.7 777.3 435.3 823 422.2C868.7 409 914.3 388 937.2 377.5L960 367L960 541L937.2 541C914.3 541 868.7 541 823 541C777.3 541 731.7 541 686 541C640.3 541 594.7 541 548.8 541C503 541 457 541 411.2 541C365.3 541 319.7 541 274 541C228.3 541 182.7 541 137 541C91.3 541 45.7 541 22.8 541L0 541Z" fill="#0066FF" stroke-linecap="round" stroke-linejoin="miter"></path></svg>