<svg id="visual" viewBox="0 0 900 600" width="900" height="600" xmlns="http://www.w3.org/2000/svg" xmlns:xlink="http://www.w3.org/1999/xlink" version="1.1"><rect x="0" y="0" width="900" height="600" fill="#002233"></rect><path d="M0 508L21.5 502.3C43 496.7 86 485.3 128.8 482.5C171.7 479.7 214.3 485.3 257.2 474.5C300 463.7 343 436.3 385.8 421.2C428.7 406 471.3 403 514.2 419.8C557 436.7 600 473.3 642.8 484.2C685.7 495 728.3 480 771.2 480.7C814 481.3 857 497.7 878.5 505.8L900 514L900 601L878.5 601C857 601 814 601 771.2 601C728.3 601 685.7 601 642.8 601C600 601 557 601 514.2 601C471.3 601 428.7 601 385.8 601C343 601 300 601 257.2 601C214.3 601 171.7 601 128.8 601C86 601 43 601 21.5 601L0 601Z" fill="#0066FF" stroke-linecap="round" stroke-linejoin="miter"></path></svg>